# ProBuilder 5.0.4
# https://unity3d.com/unity/features/worldbuilding/probuilder
# 20/05/2022 12:08:06 PM

mtllib ./glowPyramid.mtl
o glowPyramid

g glowPyramid
v -0.747 0.128 0
v 0.453 0.128 0.6928203
v 0.05299997 1.128 0
v 0.05299997 0.128 0
v 0.4529999 0.128 -0.6928204

vt 0 0
vt 1.385641 1.510331E-08
vt 0.6928203 1.077033
vt 1.2 0.6928203
vt 0.8 0
vt 1.2 -0.6928204

vn -0.4642383 0.3713907 0.8040844
vn 0 -1 0
vn 0.9284767 0.3713907 -7.987861E-08
vn -0.4642384 0.3713907 -0.8040844

usemtl darkGrey
f 1/1/1 2/2/1 3/3/1
f 4/5/2 2/4/2 1/1/2
f 2/1/3 5/2/3 3/3/3
f 4/5/2 5/6/2 2/4/2
f 5/1/4 1/2/4 3/3/4
f 4/5/2 1/1/2 5/6/2

